# AST/ASF file generated using VICON BodyLanguage
# -----------------------------------------------
:version 1.10
:name VICON
:units
  mass 1.0
  length 0.45
  angle deg
:documentation
   .ast/.asf automatically generated from VICON data using
   VICON BodyBuilder and BodyLanguage model FoxedUp or BRILLIANT.MOD
:root
   order TX TY TZ RX RY RZ
   axis XYZ
   position 0 0 0  
   orientation 0 0 0 
:bonedata
  begin
     id 1 
     name lhipjoint
     direction 0.558404 -0.748506 0.357664 
     length 2.4234 
     axis 0 0 0  XYZ
  end
  begin
     id 2 
     name lfemur
     direction 0.34202 -0.939693 0  
     length 7.14567  
     axis 0 0 20  XYZ
    dof rx ry rz
    limits (-160.0 20.0)
           (-70.0 70.0)
           (-60.0 70.0)
  end
  begin
     id 3 
     name ltibia
     direction 0.34202 -0.939693 0   
     length 8.13956   
     axis 0 0 20   XYZ
    dof rx
    limits (-10.0 170.0)
  end
  begin
     id 4 
     name lfoot
     direction 0.0791314 -0.217412 0.972867   
     length 2.00134   
     axis -90 7.62852e-016 20   XYZ
    dof rx rz
    limits (-45.0 90.0)
           (-70.0 20.0)
  end
  begin
     id 5 
     name ltoes
     direction 1.53547e-011 -4.21922e-011 1   
     length 1.00735   
     axis -90 7.62852e-016 20   XYZ
    dof rx
    limits (-90.0 20.0)
  end
  begin
     id 6 
     name rhipjoint
     direction -0.496392 -0.78327 0.374276   
     length 2.31584  
     axis 0 0 0  XYZ 
  end
  begin
     id 7 
     name rfemur
     direction -0.34202 -0.939693 0   
     length 7.47417   
     axis 0 0 -20   XYZ
    dof rx ry rz
    limits (-160.0 20.0)
           (-70.0 70.0)
           (-70.0 60.0)
  end
  begin
     id 8 
     name rtibia
     direction -0.34202 -0.939693 0   
     length 7.69071   
     axis 0 0 -20   XYZ
    dof rx
    limits (-10.0 170.0)
 end
 begin
     id 9 
     name rfoot
     direction -0.103069 -0.28318 0.953512   
     length 2.16135  
     axis -90 -7.62852e-016 -20   XYZ
    dof rx rz
    limits (-45.0 90.0)
           (-20.0 70.0)
  end
  begin
     id 10 
     name rtoes
     direction -1.53581e-011 -4.21904e-011 1   
     length 1.07867   
     axis -90 -7.62852e-016 -20   XYZ
    dof rx
    limits (-90.0 20.0)
  end
  begin
     id 11 
     name lowerback
     direction -0.0258961 0.994776 -0.0987407   
     length 2.19412   
     axis 0 0 0   XYZ
    dof rx ry rz
    limits (-20.0 45.0)
           (-30.0 30.0)
           (-30.0 30.0)
  end
  begin
     id 12 
     name upperback
     direction 0.0402454 0.999185 0.00320666   
     length 2.18445   
     axis 0 0 0   XYZ
    dof rx ry rz
    limits (-20.0 45.0)
           (-30.0 30.0)
           (-30.0 30.0)
  end
  begin
     id 13 
     name thorax
     direction 0.0519376 0.997415 0.0496558   
     length 2.21487   
     axis 0 0 0   XYZ
    dof rx ry rz
    limits (-20.0 45.0)
           (-30.0 30.0)
           (-30.0 30.0)
  end
  begin
     id 14 
     name lowerneck
     direction -0.0921276 0.983211 0.157506   
     length 1.61201   
     axis 0 0 0   XYZ
    dof rx ry rz
    limits (-20.0 45.0)
           (-30.0 30.0)
           (-30.0 30.0)
  end
  begin
     id 15 
     name upperneck
     direction 0.0820814 0.98162 -0.172292   
     length 1.65275   
     axis 0 0 0   XYZ
    dof rx ry rz
    limits (-20.0 45.0)
           (-30.0 30.0)
           (-30.0 30.0)
  end
  begin
     id 16
     name head
     direction 0.0336554 0.996413 -0.0776455  
     length 1.66415  
     axis 0 0 0   XYZ
    dof rx ry rz
    limits (-20.0 45.0)
           (-30.0 30.0)
           (-30.0 30.0)
  end
  begin
     id 17 
     name lclavicle
     direction 0.94696 0.284418 -0.149576  
     length 3.41447  
     axis 0 0 0   XYZ
    dof ry rz
    limits (-20.0 10.0)
           (0.0 20.0)
  end
  begin
     id 18 
     name lhumerus
     direction 1 -0.000130264 -9.81312e-005   
     length 5.19964   
     axis 180 -30 -90   XYZ
    dof rx ry rz
    limits (-60.0 90.0)
           (-90.0 90.0)
           (-90.0 90.0)
  end
  begin
     id 19
     name lradius
     direction 1 -4.48961e-011 1.43854e-026   
     length 3.32189   
     axis 180 -30 -90   XYZ
    dof rx
    limits (-10.0 170.0)
  end
  begin
     id 20
     name lwrist
     direction 1 -4.48958e-011 3.1502e-026   
     length 1.66095   
     axis -1.97692e-014 90 90   XYZ
    dof ry
    limits (-180.0 0.0)
 end
  begin
     id 21 
     name lhand
     direction 1 -4.48927e-011 6.3004e-026   
     length 0.645616   
     axis -4.02019e-014 90 90   XYZ
    dof rx rz
    limits (-90.0 90.0)
           (-45.0 45.0)
  end
  begin
     id 22 
     name lfingers
     direction 1 -4.4904e-011 1.26008e-025   
     length 0.520512   
     axis -8.04039e-014 90 90   XYZ
    dof rx
    limits (0.0 90.0)
  end
  begin
     id 23
     name lthumb
     direction 0.707107 -6.34947e-011 0.707107   
     length 0.747354   
     axis -90 45 2.85299e-015   XYZ
    dof rx rz
    limits (-45.0 45.0)
           (-45.0 45.0)
  end
  begin
     id 24 
     name rclavicle
     direction -0.909391 0.383475 -0.161107   
     length 3.25176  
     axis 0 0 0   XYZ 
    dof ry rz
    limits (-10.0 20.0)
           (-20.0 0.0)
  end
  begin
     id 25 
     name rhumerus
     direction -1 -4.48965e-011 -1.81384e-027  
     length 5.6595   
     axis 180 30 90   XYZ
    dof rx ry rz
    limits (-90.0 60.0)
           (-90.0 90.0)
           (-90.0 90.0)
  end
  begin
     id 26 
     name rradius
     direction -1 -4.48996e-011 -8.09397e-027   
     length 3.37604   
     axis 180 30 90   XYZ
    dof rx
    limits (-10.0 170.0)
  end
  begin
     id 27 
     name rwrist
     direction -1 -4.48927e-011 -1.56669e-026   
     length 1.68802   
     axis 1.21142e-014 -90 -90   XYZ
    dof ry
    limits (-180.0 0.0)
  end
  begin
     id 28
     name rhand
     direction -1 -4.48912e-011 -3.13339e-026   
     length 0.824702   
     axis 1.99937e-014 -90 -90   XYZ
    dof rx rz
    limits (-90.0 90.0)
           (-45.0 45.0)
  end
  begin
     id 29
     name rfingers
     direction -1 -4.49011e-011 -6.26677e-026   
     length 0.664896   
     axis 3.99874e-014 -90 -90   XYZ
    dof rx
    limits (0.0 90.0)
  end
  begin
     id 30
     name rthumb
     direction -0.707107 -6.34931e-011 0.707107   
     length 0.954662   
     axis -90 -45 -2.85299e-015   XYZ
    dof rx rz
    limits (-45.0 45.0)
           (-45.0 45.0)
  end
:hierarchy
  begin
    root lhipjoint rhipjoint lowerback
    lhipjoint lfemur
    lfemur ltibia
    ltibia lfoot
    lfoot ltoes
    rhipjoint rfemur
    rfemur rtibia
    rtibia rfoot
    rfoot rtoes
    lowerback upperback
    upperback thorax
    thorax lowerneck lclavicle rclavicle
    lowerneck upperneck
    upperneck head
    lclavicle lhumerus
    lhumerus lradius
    lradius lwrist
    lwrist lhand lthumb
    lhand lfingers
    rclavicle rhumerus
    rhumerus rradius
    rradius rwrist
    rwrist rhand rthumb
    rhand rfingers
  end

#!OML:ASF F:\VICON\USERDATA\INSTALL\rory3\rory3.ASF
:FULLY-SPECIFIED
:DEGREES
215
root 12.6669 17.7881 -39.89 14.2898 -49.6318 -3.91391
lowerback 7.12663 -1.48914 -9.02285
upperback 0.0421417 -2.65989 1.8692
thorax -3.46422 -1.15728 7.3153
lowerneck -13.9156 2.20292 -10.6129
upperneck 18.3457 3.62435 8.49469
head 7.55446 1.78918 4.9555
rclavicle 1.59028e-015 -1.74931e-014
rhumerus -38.7527 -17.0585 -71.3134
rradius 36.4449
rwrist -14.7831
rhand -10.5748 17.5583
rfingers 7.12502
rthumb 15.4301 -11.8458
lclavicle 1.59028e-015 -1.74931e-014
lhumerus -23.2492 17.7341 78.6923
lradius 32.019
lwrist -2.14815
lhand -4.95072 32.1729
lfingers 7.12502
lthumb 20.8408 61.0735
rfemur -35.7432 4.38127 19.2153
rtibia 51.6122
rfoot -19.565 4.45232
rtoes 20.2372
lfemur -14.8608 9.67861 -25.9039
ltibia 40.7848
lfoot -23.2163 15.7743
ltoes -10.0252
216
root 12.608 17.765 -39.836 14.3443 -49.6223 -4.12547
lowerback 7.19046 -1.44406 -8.76832
upperback 0.0783641 -2.58408 1.8523
thorax -3.48779 -1.12415 7.14729
lowerneck -14.2261 2.24977 -10.2536
upperneck 18.7696 3.68913 8.17395
head 7.75849 1.80736 4.81799
rclavicle -8.54774e-014 1.03368e-014
rhumerus -38.9706 -17.1676 -71.1995
rradius 36.3128
rwrist -14.6757
rhand -10.5588 17.507
rfingers 7.12502
rthumb 15.4455 -11.8959
lclavicle -8.54774e-014 1.03368e-014
lhumerus -23.4462 17.9927 78.5223
lradius 32.465
lwrist -1.57531
lhand -3.60827 33.6938
lfingers 7.12502
lthumb 22.1301 62.4472
rfemur -35.3488 3.17028 20.5017
rtibia 51.4611
rfoot -20.4125 1.21522
rtoes 6.05381
lfemur -14.5932 9.41204 -25.76
ltibia 41.0259
lfoot -23.5896 15.7656
ltoes -9.81324
217
root 12.5593 17.7517 -39.8214 14.3572 -49.0053 -3.85139
lowerback 7.41978 -1.72223 -8.97915
upperback -0.0552887 -2.99523 1.93199
thorax -3.66655 -1.30976 7.40347
lowerneck -14.2358 2.35436 -10.3177
upperneck 18.858 3.86077 8.09976
head 7.77269 1.8747 4.82243
rclavicle -1.86858e-014 1.11319e-014
rhumerus -39.0048 -16.7542 -71.2995
rradius 36.2243
rwrist -14.7052
rhand -10.8427 17.3319
rfingers 7.12502
rthumb 15.172 -12.0919
lclavicle -1.86858e-014 1.11319e-014
lhumerus -23.7855 18.4178 78.2546
lradius 32.644
lwrist -1.90769
lhand -3.23832 33.7834
lfingers 7.12502
lthumb 22.4852 62.4943
rfemur -35.3414 1.94606 21.2827
rtibia 51.5362
rfoot -20.3427 -0.388946
rtoes 3.65311
lfemur -14.8942 9.69515 -25.6031
ltibia 41.4008
lfoot -23.6309 15.2775
ltoes -13.1413
218
root 12.4924 17.7337 -39.7406 13.9489 -49.3228 -3.60933
lowerback 7.12375 -1.71105 -8.88631
upperback 0.15328 -2.94321 1.78205
thorax -3.30215 -1.31415 7.1629
lowerneck -14.1048 2.41341 -10.3729
upperneck 18.6534 3.95709 8.05405
head 7.67231 1.9158 4.81297
rclavicle 1.54853e-013 -2.22639e-014
rhumerus -39.0351 -16.372 -71.4171
rradius 36.2057
rwrist -14.9668
rhand -11.0424 17.1793
rfingers 7.12502
rthumb 14.9796 -12.259
lclavicle 1.54853e-013 -2.22639e-014
lhumerus -23.8829 18.711 78.0122
lradius 32.4611
lwrist -2.19844
lhand -3.29118 32.9725
lfingers 7.12502
lthumb 22.4345 61.6896
rfemur -34.7001 1.21985 21.5104
rtibia 51.7829
rfoot -19.9432 -0.290742
rtoes 5.43904
lfemur -14.4354 10.1161 -25.8402
ltibia 41.7441
lfoot -23.9108 15.7445
ltoes -15.9672
219
root 12.4313 17.7234 -39.6887 14.0914 -49.2638 -3.83365
lowerback 7.06903 -1.67082 -8.63128
upperback 0.191011 -2.86184 1.80206
thorax -3.25778 -1.28128 7.02827
lowerneck -14.0626 2.38877 -10.313
upperneck 18.5086 3.91545 8.02917
head 7.62346 1.90125 4.78436
rclavicle -2.60408e-014 -1.43125e-014
rhumerus -39.2148 -16.5365 -71.1572
rradius 36.0793
rwrist -15.0582
rhand -10.6548 17.2678
rfingers 7.12502
rthumb 15.353 -12.1422
lclavicle -2.60408e-014 -1.43125e-014
lhumerus -23.8934 18.5857 77.9694
lradius 32.3473
lwrist -2.22772
lhand -3.34852 32.6923
lfingers 7.12502
lthumb 22.3794 61.416
rfemur -34.2686 0.700202 22.1091
rtibia 51.8365
rfoot -19.0008 -0.315784
rtoes 9.71069
lfemur -14.4921 10.3348 -25.578
ltibia 42.3737
lfoot -24.5312 16.2099
ltoes -21.7705
220
root 12.373 17.7159 -39.6475 14.1531 -49.0104 -3.8572
lowerback 7.15507 -1.67652 -8.59439
upperback 0.1721 -2.87275 1.85927
thorax -3.32283 -1.28291 7.07417
lowerneck -13.7187 2.39203 -10.6009
upperneck 18.5045 3.92371 8.14059
head 7.55058 1.89057 4.85994
rclavicle -1.8487e-014 -3.33958e-014
rhumerus -39.3361 -16.936 -70.7894
rradius 35.8114
rwrist -14.9145
rhand -10.265 17.4598
rfingers 7.12502
rthumb 15.7284 -11.9211
lclavicle -1.8487e-014 -3.33958e-014
lhumerus -23.7861 18.4614 77.9676
lradius 32.2167
lwrist -2.14181
lhand -3.58026 32.671
lfingers 7.12502
lthumb 22.157 61.4213
rfemur -33.9693 0.232871 22.4861
rtibia 51.8939
rfoot -17.8283 0.319439
rtoes 20.4804
lfemur -14.5456 10.6359 -25.3929
ltibia 42.8714
lfoot -23.0143 15.8882
ltoes -20.2983
221
root 12.3074 17.7906 -39.5847 14.0922 -48.7193 -3.6992
lowerback 7.20159 -1.75195 -8.56272
upperback 0.199659 -2.97582 1.80223
thorax -3.30557 -1.33694 7.0049
lowerneck -13.9827 2.42172 -10.4205
upperneck 18.7337 3.95853 8.07504
head 7.67495 1.91109 4.82745
rclavicle -2.96189e-014 1.90833e-014
rhumerus -39.3377 -17.1326 -70.7993
rradius 35.5723
rwrist -14.6681
rhand -10.4815 17.5873
rfingers 7.12502
rthumb 15.52 -11.8099
lclavicle -2.96189e-014 1.90833e-014
lhumerus -23.5991 18.677 77.7512
lradius 32.0163
lwrist -2.36673
lhand -3.91889 32.363
lfingers 7.12502
lthumb 21.8318 61.1515
rfemur -33.3108 -0.154621 22.5722
rtibia 51.4647
rfoot -18.8416 -1.12804
rtoes 13.4664
lfemur -15.4373 9.38974 -25.0167
ltibia 43.7642
lfoot -23.8359 14.1579
ltoes -9.16601
222
root 12.2496 17.7527 -39.5478 13.9752 -48.5649 -3.5958
lowerback 7.20007 -1.79653 -8.46298
upperback 0.291613 -3.02679 1.71817
thorax -3.20817 -1.37267 6.85928
lowerneck -15.4193 2.55164 -9.23561
upperneck 20.0776 4.18189 7.04434
head 8.41709 1.97903 4.39652
rclavicle 8.60738e-014 -3.97569e-015
rhumerus -39.2868 -17.2172 -70.9129
rradius 35.3676
rwrist -14.4443
rhand -11.0273 17.5096
rfingers 7.12502
rthumb 14.9941 -11.9275
lclavicle 8.60738e-014 -3.97569e-015
lhumerus -23.3684 18.5715 77.5414
lradius 31.7764
lwrist -2.48431
lhand -4.40181 32.2424
lfingers 7.12502
lthumb 21.3681 61.0842
rfemur -32.9661 -0.400986 22.6587
rtibia 51.2201
rfoot -19.026 -1.89763
rtoes 15.793
lfemur -15.1503 10.5122 -25.0908
ltibia 44.4733
lfoot -21.6599 14.1968
ltoes -11.9027
223
root 12.1903 17.7563 -39.5073 14.0891 -48.2993 -3.76257
lowerback 7.29556 -1.81409 -8.25261
upperback 0.29695 -3.03837 1.79308
thorax -3.26054 -1.3788 6.82503
lowerneck -15.5268 2.46876 -9.2684
upperneck 20.3113 4.11571 6.8817
head 8.52647 1.92213 4.35172
rclavicle -1.8487e-014 1.27222e-014
rhumerus -39.3644 -17.3922 -70.6999
rradius 35.1633
rwrist -14.2973
rhand -11.2092 17.3537
rfingers 7.12502
rthumb 14.8189 -12.0964
lclavicle -1.8487e-014 1.27222e-014
lhumerus -23.1268 18.2794 77.5272
lradius 31.3457
lwrist -2.44728
lhand -4.72425 32.2173
lfingers 7.12502
lthumb 21.0583 61.0938
rfemur -32.4382 -0.469117 22.8585
rtibia 50.7861
rfoot -19.7223 -1.65896
rtoes 13.7369
lfemur -15.4375 10.5404 -24.6835
ltibia 45.4205
lfoot -20.9952 13.29
ltoes -9.63915
224
root 12.127 17.752 -39.4276 14.1408 -48.5345 -4.23543
lowerback 7.32477 -1.67534 -7.70761
upperback 0.423294 -2.80606 1.83572
thorax -3.20853 -1.27807 6.53825
lowerneck -15.4321 2.40836 -9.5025
upperneck 20.3949 4.06538 6.94224
head 8.53547 1.88321 4.40643
rclavicle 7.95139e-016 -2.14687e-014
rhumerus -39.5281 -17.3171 -70.4561
rradius 35.0258
rwrist -14.3432
rhand -11.1098 17.397
rfingers 7.12502
rthumb 14.9147 -12.0461
lclavicle 7.95139e-016 -2.14687e-014
lhumerus -23.2923 18.7535 77.5383
lradius 31.175
lwrist -2.88072
lhand -4.77584 32.1464
lfingers 7.12502
lthumb 21.0088 61.0285
rfemur -31.5095 -0.0544361 22.9337
rtibia 50.4098
rfoot -20.2971 -1.06148
rtoes 12.8266
lfemur -15.3754 10.5657 -24.3411
ltibia 46.3967
lfoot -21.2177 13.3962
ltoes -12.1198
